<svg id="Layer_1" data-name="Layer 1" xmlns="http://www.w3.org/2000/svg" xmlns:xlink="http://www.w3.org/1999/xlink" viewBox="0 0 227.58 39.61"><defs><style>.cls-1{fill:url(#linear-gradient);}.cls-2{fill:url(#linear-gradient-2);}.cls-3{fill:url(#linear-gradient-3);}.cls-4{fill:url(#linear-gradient-4);}.cls-5{fill:url(#linear-gradient-5);}.cls-6{fill:url(#linear-gradient-6);}.cls-7{fill:url(#linear-gradient-7);}</style><linearGradient id="linear-gradient" x1="190.41" y1="2.07" x2="190.41" y2="33.2" gradientTransform="translate(132.62 -169.91) rotate(90)" gradientUnits="userSpaceOnUse"><stop offset="0" stop-color="#5574f7"/><stop offset="1" stop-color="#60c3ff"/></linearGradient><linearGradient id="linear-gradient-2" x1="152.07" y1="1.62" x2="152.07" y2="33.82" gradientTransform="matrix(1, 0, 0, 1, 0, 0)" xlink:href="#linear-gradient"/><linearGradient id="linear-gradient-3" x1="184.61" y1="8.19" x2="184.61" y2="34.05" gradientTransform="matrix(1, 0, 0, 1, 0, 0)" xlink:href="#linear-gradient"/><linearGradient id="linear-gradient-4" x1="215.96" y1="8.42" x2="215.96" y2="41.23" gradientTransform="matrix(1, 0, 0, 1, 0, 0)" xlink:href="#linear-gradient"/><linearGradient id="linear-gradient-5" x1="17.2" y1="7.86" x2="17.2" y2="33.9" gradientTransform="matrix(1, 0, 0, 1, 0, 0)" xlink:href="#linear-gradient"/><linearGradient id="linear-gradient-6" x1="49.43" y1="7.95" x2="49.43" y2="33.81" gradientTransform="matrix(1, 0, 0, 1, 0, 0)" xlink:href="#linear-gradient"/><linearGradient id="linear-gradient-7" x1="80.78" y1="8.18" x2="80.78" y2="40.98" gradientTransform="matrix(1, 0, 0, 1, 0, 0)" xlink:href="#linear-gradient"/></defs><title>Hay-logo-horz</title><path class="cls-1" d="M114,35.88c.8-.13,1.61-.22,2.41-.38a15.41,15.41,0,0,0,11.83-12.43,13.66,13.66,0,0,0-2.62-10.87,1,1,0,0,0-1.42-.31,1,1,0,0,0,0,1.41,11.58,11.58,0,0,1,2.46,8.08,13.34,13.34,0,0,1-4.48,9.18,13.51,13.51,0,0,1-20.41-2.66c-3-4.66-3-9.6-.52-14.45A14.61,14.61,0,0,1,113.1,5.12c6.63-.74,11.84,1.89,15.3,7.59A15.52,15.52,0,0,1,114.24,36L114,36Zm-12.49-15.5c.09.79.14,1.58.29,2.36A11.48,11.48,0,0,0,112.54,32a11.23,11.23,0,0,0,9.53-4.32,10.69,10.69,0,0,0,2.35-9A9.58,9.58,0,0,0,105.5,21.6a7.66,7.66,0,0,0,14.94,1c1.13-3.91-1.07-7.43-5-7.8a5.66,5.66,0,0,0-6.19,5.83,3.73,3.73,0,0,0,2.52,3.43A3.78,3.78,0,0,0,116,22.89a3.74,3.74,0,0,0,.86-2.28.89.89,0,0,0-.86-1,.88.88,0,0,0-.94.87c0,.15,0,.3,0,.45a2,2,0,0,1-2.5,1.48,2,2,0,0,1-1.4-2.44,3.92,3.92,0,0,1,5.13-3.18,4,4,0,0,1,2.55,4.87,5.83,5.83,0,0,1-11.11,1.11,6.78,6.78,0,0,1,.67-6.31A7.75,7.75,0,0,1,119,13.83a7.85,7.85,0,0,1,3.63,8.29,9.8,9.8,0,0,1-8.18,8,9.69,9.69,0,0,1-10.08-5.29c-1.86-3.91-1.27-7.66,1.17-11.11a11.53,11.53,0,0,1,15.49-3.18,1.3,1.3,0,0,0,.45.2.89.89,0,0,0,1-.53A.89.89,0,0,0,122.06,9a13.18,13.18,0,0,0-10.22-1.61A13.49,13.49,0,0,0,101.51,20.38Z" transform="translate(-2.8 -1.62)"/><path class="cls-2" d="M159.34,8c5.52,0,7.17,1.79,7.17,8,0,5.38,0,13.43,0,16.38,0,1-.65,1.29-1.38,1.33s-2.76.14-4.88.14-4.1-.09-4.92-.14-1.34-.32-1.38-1.33c-.1-3-.1-10.72-.1-15,0-1.2-.41-1.61-1.61-1.61-1.38,0-1.88.28-1.88,2.58,0,4.41,0,11-.09,14a1.26,1.26,0,0,1-1.38,1.33c-.83,0-2.76.14-4.88.14s-4.05-.09-4.88-.14a1.26,1.26,0,0,1-1.38-1.33c-.09-3-.09-10.26-.09-14.63s0-11.64.09-14.63c0-.92.46-1.24,1.38-1.34,1.11-.13,3.27-.13,5.16-.13,1.7,0,3.68,0,4.69.13s1.38.42,1.38,1.34V14.17h.23C151.61,9.21,153.08,8,159.34,8Z" transform="translate(-2.8 -1.62)"/><path class="cls-3" d="M186.52,15.42c-.05-.74-.51-1-1.75-1-1.65,0-1.88.22-1.93,1.61-.05,1-.14,1.15-.92,1.19s-3.4.09-4.79.09-3.77,0-5.47-.09c-.83,0-1-.27-1-1.15a26,26,0,0,1,.37-4.42c.46-2.25,1.61-2.76,4.19-3.08s6-.37,9.38-.37,5.16.1,7.27.23c5.48.37,7.13,1.75,7.13,7.92,0,5.38,0,13.06-.09,16,0,1-.64,1.24-1.38,1.33s-2.81.14-4.83.14-3.86,0-4.78-.14c-.74,0-1.29-.32-1.29-1.33v-4h-.23c-.74,4.28-3,5.71-8.79,5.71-6.07,0-7.45-1.7-7.45-8.28,0-1.29,0-2.76.14-3.82.13-1.75.87-2.58,2.76-2.58h13.48C186.57,18.18,186.57,16.48,186.52,15.42Zm-3.73,7.82a12.45,12.45,0,0,0,0,1.29,3,3,0,0,0,.23,1.52c.23.36.69.55,1.88.55s1.71-.42,1.71-1.15v-2.9h-2.81C183.16,22.55,182.89,22.64,182.79,23.24Z" transform="translate(-2.8 -1.62)"/><path class="cls-4" d="M219.41,8.56c1.15-.14,3.5-.14,4.65-.14s3.91,0,5.06.1,1.42.59,1.19,1.61L225.53,32.9c-1.57,7.54-2.62,8.33-10.91,8.33-7.31,0-8.28-.46-8.46-2.35-.09-.69-.14-2.25-.14-3.17,0-1.43.23-1.66,1.8-1.66h5.79c1,0,1.47-.37,1.75-2.07-2,0-5.61,0-7.59-.09A1.63,1.63,0,0,1,206,30.37L201.6,10.13c-.22-1,.05-1.52,1.2-1.61s3.82-.1,5-.1,3.59,0,4.74.14c.69.09,1.1.37,1.19,1.06l2.17,16.24h.18l2.16-16.24C218.31,8.93,218.72,8.65,219.41,8.56Z" transform="translate(-2.8 -1.62)"/><path class="cls-5" d="M10.35,8c2.16-.14,4.92-.18,6.85-.18s4.7,0,6.86.18c6.26.42,7.54,1.84,7.54,7.59,0,.79,0,1.11-.82,1.2-1.84.05-4.24.05-5.62.05s-4.32,0-5.24-.05c-.74-.09-.78-.14-.88-.78,0-.37,0-.83-.09-1.15-.09-.78-.55-1-1.75-1s-1.7.27-1.7,1v3.4c0,.55.14.65.46.65,3.08,0,13.62,0,14.49,0s1.15.37,1.15,1.15v6c0,5.75-1.28,7.18-7.54,7.59-2.16.14-5,.19-6.86.19s-4.69,0-6.85-.19C4.09,33.3,2.8,31.87,2.8,26.12c0-.78.05-1.1.83-1.19,1.84-.05,4.23-.05,5.61-.05s4.33,0,5.25.05c.74.09.78.14.87.78.05.37.05.83.1,1.15.09.78.5,1,1.74,1s1.71-.27,1.71-1V23.45c0-.55-.14-.64-.46-.64-3.13,0-13.62,0-14.5,0A1,1,0,0,1,2.8,21.61v-6C2.8,9.88,4.09,8.46,10.35,8Z" transform="translate(-2.8 -1.62)"/><path class="cls-6" d="M51.34,15.17c-.05-.73-.51-1-1.75-1-1.66,0-1.89.23-1.93,1.61,0,1-.14,1.15-.92,1.2s-3.41.09-4.79.09-3.77,0-5.47-.09c-.83,0-1-.28-1-1.15a24.86,24.86,0,0,1,.37-4.42c.46-2.25,1.61-2.76,4.18-3.08A92.22,92.22,0,0,1,49.45,8c3.4,0,5.15.09,7.27.23,5.47.37,7.13,1.75,7.13,7.91,0,5.39,0,13.07-.09,16,0,1-.65,1.25-1.38,1.34s-2.81.14-4.83.14-3.87,0-4.79-.14c-.73,0-1.29-.32-1.29-1.34v-4h-.23c-.73,4.28-2.94,5.71-8.78,5.71-6.08,0-7.46-1.71-7.46-8.28,0-1.29,0-2.77.14-3.82.14-1.75.88-2.58,2.76-2.58H51.38C51.38,17.93,51.38,16.23,51.34,15.17ZM47.61,23a10.06,10.06,0,0,0,0,1.29,3.08,3.08,0,0,0,.23,1.52c.23.37.69.55,1.89.55s1.7-.41,1.7-1.15V22.3h-2.8C48,22.3,47.7,22.4,47.61,23Z" transform="translate(-2.8 -1.62)"/><path class="cls-7" d="M84.23,8.32c1.15-.14,3.49-.14,4.64-.14s3.91,0,5.06.09,1.43.6,1.2,1.61L90.34,32.66C88.78,40.2,87.72,41,79.44,41c-7.31,0-8.28-.46-8.46-2.34a30.63,30.63,0,0,1-.14-3.18c0-1.42.23-1.65,1.79-1.65h5.8c1,0,1.47-.37,1.75-2.07-2,0-5.62,0-7.59-.1a1.62,1.62,0,0,1-1.8-1.51L66.42,9.88c-.23-1,0-1.52,1.2-1.61s3.82-.09,5-.09,3.59,0,4.73.14c.7.09,1.11.37,1.2,1.06l2.16,16.24h.19L83,9.38C83.12,8.69,83.54,8.41,84.23,8.32Z" transform="translate(-2.8 -1.62)"/></svg>