<svg id="Layer_1" data-name="Layer 1" xmlns="http://www.w3.org/2000/svg" xmlns:xlink="http://www.w3.org/1999/xlink" viewBox="0 0 92.77 109.22"><defs><style>.cls-1{fill:url(#linear-gradient);}.cls-2{fill:url(#linear-gradient-2);}.cls-3{fill:url(#linear-gradient-3);}.cls-4{fill:url(#linear-gradient-4);}.cls-5{fill:url(#linear-gradient-5);}.cls-6{fill:url(#linear-gradient-6);}.cls-7{fill:url(#linear-gradient-7);}</style><linearGradient id="linear-gradient" x1="130.91" y1="133.25" x2="130.91" y2="176.72" gradientTransform="translate(210.62 -73.91) rotate(90)" gradientUnits="userSpaceOnUse"><stop offset="0" stop-color="#5574f7"/><stop offset="1" stop-color="#60c3ff"/></linearGradient><linearGradient id="linear-gradient-2" x1="22.07" y1="76.25" x2="22.07" y2="108.46" gradientTransform="matrix(1, 0, 0, 1, 0, 0)" xlink:href="#linear-gradient"/><linearGradient id="linear-gradient-3" x1="54.61" y1="82.83" x2="54.61" y2="108.69" gradientTransform="matrix(1, 0, 0, 1, 0, 0)" xlink:href="#linear-gradient"/><linearGradient id="linear-gradient-4" x1="85.96" y1="83.06" x2="85.96" y2="115.86" gradientTransform="matrix(1, 0, 0, 1, 0, 0)" xlink:href="#linear-gradient"/><linearGradient id="linear-gradient-5" x1="22.2" y1="6.64" x2="22.2" y2="32.68" gradientTransform="matrix(1, 0, 0, 1, 0, 0)" xlink:href="#linear-gradient"/><linearGradient id="linear-gradient-6" x1="54.43" y1="6.74" x2="54.43" y2="32.59" gradientTransform="matrix(1, 0, 0, 1, 0, 0)" xlink:href="#linear-gradient"/><linearGradient id="linear-gradient-7" x1="85.78" y1="6.97" x2="85.78" y2="39.77" gradientTransform="matrix(1, 0, 0, 1, 0, 0)" xlink:href="#linear-gradient"/></defs><title>Hay-logo-vert</title><path class="cls-1" d="M54.25,78.48c1.13-.18,2.26-.31,3.37-.54A21.5,21.5,0,0,0,74.14,60.59a19.11,19.11,0,0,0-3.66-15.18,1.29,1.29,0,1,0-2,1.54A16.18,16.18,0,0,1,71.9,58.23,18.51,18.51,0,0,1,65.65,71a18.06,18.06,0,0,1-12.56,4.89,18.22,18.22,0,0,1-16-8.6c-4.24-6.51-4.15-13.4-.72-20.17A20.39,20.39,0,0,1,53,35.53c9.26-1,16.53,2.63,21.36,10.59A21.67,21.67,0,0,1,54.58,78.63a1.64,1.64,0,0,1-.32,0ZM36.81,56.83c.13,1.1.2,2.21.41,3.3a16,16,0,0,0,15,12.92,15.68,15.68,0,0,0,13.31-6A14.87,14.87,0,0,0,68.8,54.46a13.37,13.37,0,0,0-26.42,4.08,10.7,10.7,0,0,0,20.87,1.39c1.57-5.46-1.5-10.37-6.92-10.9a7.93,7.93,0,0,0-8.66,8.15A5.24,5.24,0,0,0,51.19,62a5.3,5.3,0,0,0,7.09-4.82,1.26,1.26,0,0,0-1.2-1.42A1.23,1.23,0,0,0,55.76,57c0,.2,0,.41-.07.62a2.75,2.75,0,0,1-3.48,2.07,2.84,2.84,0,0,1-2-3.41,5.47,5.47,0,0,1,7.16-4.44c2.82,1,4.2,3.62,3.57,6.8a8.15,8.15,0,0,1-15.53,1.55,9.52,9.52,0,0,1,.95-8.81,10.83,10.83,0,0,1,14.9-3.65,11,11,0,0,1,5.06,11.58A13.69,13.69,0,0,1,54.94,70.42,13.51,13.51,0,0,1,40.86,63c-2.59-5.47-1.78-10.71,1.63-15.52a16.12,16.12,0,0,1,21.64-4.44,2,2,0,0,0,.63.28,1.24,1.24,0,0,0,1.41-.74A1.27,1.27,0,0,0,65.51,41a18.33,18.33,0,0,0-14.27-2.24A18.85,18.85,0,0,0,36.81,56.83Z" transform="translate(-7.62 -6.64)"/><path class="cls-2" d="M29.34,82.65c5.52,0,7.17,1.79,7.17,8,0,5.38,0,13.43,0,16.37,0,1-.65,1.29-1.38,1.34s-2.76.14-4.88.14-4.1-.1-4.92-.14S24,108,23.91,107c-.1-3-.1-10.72-.1-15,0-1.2-.41-1.61-1.61-1.61-1.38,0-1.88.27-1.88,2.57,0,4.42,0,11-.09,14a1.27,1.27,0,0,1-1.38,1.34c-.83,0-2.76.14-4.88.14s-4.05-.1-4.88-.14A1.27,1.27,0,0,1,7.71,107c-.09-3-.09-10.26-.09-14.63s0-11.64.09-14.63c0-.92.46-1.24,1.38-1.33,1.11-.14,3.27-.14,5.16-.14a45.2,45.2,0,0,1,4.69.14c.92.09,1.38.41,1.38,1.33V88.81h.23C21.61,83.84,23.08,82.65,29.34,82.65Z" transform="translate(-7.62 -6.64)"/><path class="cls-3" d="M56.52,90.05c-.05-.73-.51-1-1.75-1-1.65,0-1.88.23-1.93,1.61-.05,1-.14,1.15-.92,1.2s-3.4.09-4.79.09-3.77,0-5.47-.09c-.83,0-1-.28-1-1.15a25.83,25.83,0,0,1,.37-4.42c.46-2.25,1.61-2.76,4.19-3.08a92,92,0,0,1,9.38-.37c3.41,0,5.16.09,7.27.23C67.38,83.43,69,84.81,69,91c0,5.39,0,13.07-.09,16,0,1-.64,1.24-1.38,1.34s-2.81.14-4.83.14-3.86,0-4.78-.14c-.74,0-1.29-.32-1.29-1.34v-4h-.23c-.74,4.28-3,5.71-8.79,5.71-6.07,0-7.45-1.71-7.45-8.29,0-1.28,0-2.76.14-3.81.13-1.75.87-2.58,2.76-2.58H56.57C56.57,92.81,56.57,91.11,56.52,90.05Zm-3.73,7.82a12.55,12.55,0,0,0,0,1.29,3,3,0,0,0,.23,1.52c.23.37.69.55,1.88.55,1.34,0,1.71-.41,1.71-1.15v-2.9H53.76C53.16,97.18,52.89,97.28,52.79,97.87Z" transform="translate(-7.62 -6.64)"/><path class="cls-4" d="M89.41,83.2c1.15-.14,3.5-.14,4.65-.14s3.91,0,5.06.09,1.42.6,1.19,1.61l-4.78,22.78c-1.57,7.54-2.62,8.32-10.91,8.32-7.31,0-8.28-.46-8.46-2.34-.09-.69-.14-2.26-.14-3.18,0-1.42.23-1.65,1.8-1.65h5.79c1,0,1.47-.37,1.75-2.07-2,0-5.61,0-7.59-.1A1.62,1.62,0,0,1,76,105L71.6,84.76c-.22-1,.05-1.52,1.2-1.61s3.82-.09,5-.09,3.59,0,4.74.14c.69.09,1.1.37,1.19,1.06l2.17,16.24h.18l2.16-16.24C88.31,83.57,88.72,83.29,89.41,83.2Z" transform="translate(-7.62 -6.64)"/><path class="cls-5" d="M15.35,6.83c2.16-.14,4.92-.19,6.85-.19s4.7.05,6.86.19c6.26.41,7.54,1.84,7.54,7.59,0,.78,0,1.1-.82,1.2-1.84,0-4.24,0-5.62,0s-4.32,0-5.24,0c-.74-.1-.78-.14-.88-.79,0-.37,0-.83-.09-1.15-.09-.78-.55-1-1.75-1s-1.7.28-1.7,1v3.41c0,.55.14.64.46.64,3.08,0,13.62,0,14.49.05s1.15.37,1.15,1.15v6c0,5.75-1.28,7.17-7.54,7.59-2.16.14-5,.18-6.86.18s-4.69,0-6.85-.18c-6.26-.42-7.55-1.84-7.55-7.59,0-.78,0-1.11.83-1.2,1.84,0,4.23,0,5.61,0s4.33,0,5.25,0c.74.09.78.14.87.78.05.37.05.83.1,1.15.09.79.5,1,1.74,1s1.71-.28,1.71-1v-3.4c0-.55-.14-.64-.46-.64-3.13,0-13.62,0-14.5-.05A1,1,0,0,1,7.8,20.4v-6C7.8,8.67,9.09,7.24,15.35,6.83Z" transform="translate(-7.62 -6.64)"/><path class="cls-6" d="M56.34,14c-.05-.74-.51-1-1.75-1-1.66,0-1.89.23-1.93,1.61,0,1-.14,1.15-.92,1.19s-3.41.1-4.79.1-3.77,0-5.47-.1c-.83,0-1-.27-1-1.15a24.83,24.83,0,0,1,.37-4.41c.46-2.26,1.61-2.76,4.18-3.09s6-.36,9.39-.36,5.15.09,7.27.23c5.47.36,7.13,1.74,7.13,7.91,0,5.38,0,13.07-.09,16-.05,1-.65,1.24-1.38,1.33s-2.81.14-4.83.14-3.87,0-4.79-.14a1.18,1.18,0,0,1-1.29-1.33v-4h-.23c-.73,4.28-2.94,5.7-8.78,5.7-6.08,0-7.46-1.7-7.46-8.28,0-1.29,0-2.76.14-3.82.14-1.75.88-2.57,2.76-2.57H56.38C56.38,16.72,56.38,15,56.34,14Zm-3.73,7.82a10,10,0,0,0,0,1.29,3.13,3.13,0,0,0,.23,1.52c.23.36.69.55,1.89.55s1.7-.42,1.7-1.15v-2.9h-2.8C53,21.09,52.7,21.18,52.61,21.78Z" transform="translate(-7.62 -6.64)"/><path class="cls-7" d="M89.23,7.1C90.38,7,92.72,7,93.87,7s3.91,0,5.06.09,1.43.6,1.2,1.61L95.34,31.44c-1.56,7.55-2.62,8.33-10.9,8.33-7.31,0-8.28-.46-8.46-2.35a30.43,30.43,0,0,1-.14-3.17c0-1.43.23-1.66,1.79-1.66h5.8c1,0,1.47-.37,1.75-2.07-2,0-5.62,0-7.59-.09a1.63,1.63,0,0,1-1.8-1.52L71.42,8.67c-.23-1,0-1.52,1.2-1.61s3.82-.09,5-.09,3.59,0,4.73.13c.7.1,1.11.37,1.2,1.06L85.68,24.4h.19L88,8.16C88.12,7.47,88.54,7.2,89.23,7.1Z" transform="translate(-7.62 -6.64)"/></svg>